<svg width="1208" height="1208" viewBox="0 0 1208 1208" fill="none" xmlns="http://www.w3.org/2000/svg">
<path d="M959.579 1208H247.959L438.959 1017H768.579L959.579 1208ZM1208 959.454L1017.06 768.511V438.902L1208 247.958V959.454ZM191.057 439.478V767.936L0 958.992V248.421L191.057 439.478ZM727.485 425.678C757.308 425.678 781.485 449.855 781.485 479.678V727.428C781.485 757.251 757.308 781.428 727.485 781.428H479.735C449.912 781.428 425.735 757.251 425.735 727.428V479.678C425.736 449.855 449.912 425.678 479.735 425.678H727.485ZM767.992 191H439.546L248.546 0H958.992L767.992 191Z" fill="url(#paint0_linear_9_13)"/>
<defs>
<linearGradient id="paint0_linear_9_13" x1="604" y1="1.3033e-07" x2="604" y2="1208" gradientUnits="userSpaceOnUse">
<stop stop-color="#FF8800"/>
<stop offset="1" stop-color="#995200"/>
</linearGradient>
</defs>
</svg>
